<?xml version="1.0" encoding="UTF-8" standalone="no"?>
<!DOCTYPE svg PUBLIC "-//W3C//DTD SVG 1.1//EN" "http://www.w3.org/Graphics/SVG/1.1/DTD/svg11.dtd">
<svg width="100%" height="100%" viewBox="0 0 2580 340" version="1.1" xmlns="http://www.w3.org/2000/svg" xmlns:xlink="http://www.w3.org/1999/xlink" xml:space="preserve" xmlns:serif="http://www.serif.com/" style="fill-rule:evenodd;clip-rule:evenodd;stroke-linejoin:round;stroke-miterlimit:2;">
    <g transform="matrix(4.16667,0,0,4.16667,-2879.17,-495.833)">
        <g transform="matrix(1.1,0,0,1,-69.1,0)">
            <g>
                <g transform="matrix(1,0,0,1,691,196.328)">
                    <text x="0px" y="0px" style="font-family:'Arial-BoldMT', 'Arial', sans-serif;font-weight:700;font-size:96px;fill:rgb(86,92,105);">V</text>
                </g>
                <g transform="matrix(1,0,0,1,761.08,196.328)">
                    <text x="0px" y="0px" style="font-family:'Arial-BoldMT', 'Arial', sans-serif;font-weight:700;font-size:96px;fill:rgb(86,92,105);">A<tspan x="70.08px 134.88px " y="0px 0px ">RG</tspan></text>
                </g>
            </g>
        </g>
        <g transform="matrix(1.1,0,0,1,-99.4917,0)">
            <g>
                <g transform="matrix(1,0,0,1,994.917,196.328)">
                    <text x="0px" y="0px" style="font-family:'Arial-BoldMT', 'Arial', sans-serif;font-weight:700;font-size:96px;fill:rgb(130,160,160);">-</text>
                </g>
                <g transform="matrix(1,0,0,1,1031.3,196.328)">
                    <text x="0px" y="0px" style="font-family:'Arial-BoldMT', 'Arial', sans-serif;font-weight:700;font-size:96px;fill:rgb(130,160,160);">T<tspan x="59.04px 115.54px 172.03px 199.97px " y="0px 0px 0px 0px ">ools</tspan></text>
                </g>
            </g>
        </g>
    </g>
</svg>
